<?xml version="1.0" encoding="UTF-8" standalone="no"?>
<svg
   xmlns:dc="http://purl.org/dc/elements/1.1/"
   xmlns:cc="http://creativecommons.org/ns#"
   xmlns:rdf="http://www.w3.org/1999/02/22-rdf-syntax-ns#"
   xmlns:svg="http://www.w3.org/2000/svg"
   xmlns="http://www.w3.org/2000/svg"
   xmlns:sodipodi="http://sodipodi.sourceforge.net/DTD/sodipodi-0.dtd"
   xmlns:inkscape="http://www.inkscape.org/namespaces/inkscape"
   viewBox="0 0 512 512"
   id="svg2"
   version="1.1"
   inkscape:version="0.91 r13725"
   sodipodi:docname="icon.svg"
   inkscape:export-filename="/home/alex/Desktop/perforce_workspace/Engineering/Software/ElectronApplications/BATSPasswordTool/icon/icon.png"
   inkscape:export-xdpi="90"
   inkscape:export-ydpi="90">
  <metadata
     id="metadata12">
    <rdf:RDF>
      <cc:Work
         rdf:about="">
        <dc:format>image/svg+xml</dc:format>
        <dc:type
           rdf:resource="http://purl.org/dc/dcmitype/StillImage" />
        <dc:title></dc:title>
      </cc:Work>
    </rdf:RDF>
  </metadata>
  <defs
     id="defs10" />
  <sodipodi:namedview
     pagecolor="#ffffff"
     bordercolor="#666666"
     borderopacity="1"
     objecttolerance="10"
     gridtolerance="10"
     guidetolerance="10"
     inkscape:pageopacity="0"
     inkscape:pageshadow="2"
     inkscape:window-width="1920"
     inkscape:window-height="1008"
     id="namedview8"
     showgrid="false"
     inkscape:zoom="0.921875"
     inkscape:cx="-150.23729"
     inkscape:cy="323.35998"
     inkscape:window-x="0"
     inkscape:window-y="24"
     inkscape:window-maximized="1"
     inkscape:current-layer="layer2" />
  <g
     inkscape:groupmode="layer"
     id="layer1"
     inkscape:label="BG"
     style="display:inline"
     sodipodi:insensitive="true">
    <rect
       style="fill:#1e1f11;fill-opacity:1"
       id="rect4143"
       width="500"
       height="500"
       x="6"
       y="6"
       ry="70.508476" />
  </g>
  <g
     inkscape:groupmode="layer"
     id="layer2"
     inkscape:label="Skull"
     style="display:inline"
     sodipodi:insensitive="true">
    <g
       id="g4148"
       transform="matrix(7.4218754,0,0,7.4218754,-2280.0171,-106.28816)">
      <g
         style="display:inline;fill:#ffffff;fill-opacity:1"
         id="g3043"
         transform="matrix(0.08292357,0,0,0.08292357,299.85687,16.970992)">
        <path
           id="path3045"
           d="m 252.874,6.325 c 87.74,73.531 132.309,106.473 132.309,187.075 0,64.616 -8.399,66.41 -61.692,66.41 -73.277,0 -118.139,-44.591 -204.851,-113.815 24.363,3.904 55.691,14.481 69.016,14.481 1.332,0 64.91,-71.327 80.068,-83.428 -5.383,-19.844 -10.712,-46.492 -14.85,-70.723 l 0,0 z"
           inkscape:connector-curvature="0"
           style="clip-rule:evenodd;fill:#ffffff;fill-opacity:1;fill-rule:evenodd" />
      </g>
      <g
         style="display:inline;fill:#ffffff;fill-opacity:1"
         id="g3047"
         transform="matrix(0.08292357,0,0,0.08292357,299.85687,16.970992)">
        <path
           id="path3049"
           d="m 869.907,288.483 c -15.557,-30.379 -35.467,-57.955 -58.786,-82.056 0.479,0 0.96,0 1.438,0 C 749.69,130.21 654.561,81.599 548.041,81.599 c -61.807,0 -119.78,16.38 -169.855,45.004 8.297,19.233 12.496,40.488 12.496,66.217 0,70.422 -9.154,72.371 -67.229,72.371 -26.004,0 -48.719,-5.185 -70.795,-14.737 -30.101,51 -47.414,110.436 -47.414,173.947 0,147.358 93.055,272.821 223.549,321.271 12.669,6.057 25.824,11.436 39.48,16.001 -2.626,-5.803 -4.976,-11.737 -7.08,-17.707 -0.353,-1.001 -0.487,-1.918 -0.536,-2.798 l -8.5,-19.524 -55.162,-157.705 104.771,13.288 -119.416,-172.791 129.704,-28.617 0.442,-96.297 c 4.209,2.227 8.429,4.442 12.723,6.514 l 0.359,-3.591 185.614,98.292 -25.5,-102.479 163.09,36.25 20.39,6.147 c 0.881,-0.054 1.809,-0.027 2.846,0.205 6.177,1.392 12.339,3.024 18.417,4.95 -6.139,-13.026 -13.029,-25.451 -20.528,-37.327 z"
           inkscape:connector-curvature="0"
           style="fill:#ffffff;fill-opacity:1" />
      </g>
    </g>
  </g>
</svg>
